# Blender v2.81 (sub 16) OBJ File: ''
# www.blender.org
mtllib bevelled_outer_corner.mtl
g face0-texture:1
v 0.500000 -0.500000 0.500000
v -0.500000 -0.500000 0.500000
v -0.500000 -0.500000 -0.500000
vt 0.000000 1.000000
vt 1.000000 1.000000
vt 1.000000 0.000000
vn 0.0000 -1.0000 -0.0000
usemtl None.001
s 1
f 1/1/1 2/2/1 3/3/1
g face1-texture:1
v -0.500000 -0.500000 0.500000
v -0.500000 -0.500000 0.500000
v 0.500000 -0.500000 0.500000
v 0.000000 -0.000000 0.500000
vt 0.000000 0.000000
vt 0.000000 1.000000
vt 1.000000 1.000000
vt 0.500000 0.500000
vn 0.0000 0.0000 0.0000
vn 0.0000 -0.0000 1.0000
usemtl None.001
s 1
f 4/4/2 5/5/2 6/6/3 7/7/3
g face2-texture:2
v -0.500000 -0.500000 -0.500000
v -0.500000 -0.500000 0.500000
v 0.500000 -0.500000 0.500000
v -0.500000 0.000000 0.000000
v 0.000000 -0.000000 0.500000
vt 1.000000 1.000000
vt 0.750000 0.500000
vt 0.500000 0.000000
vt 0.250000 0.500000
vt 0.000000 1.000000
vn 0.4082 0.8165 -0.4082
usemtl None.001
s 1
f 8/8/4 11/9/4 9/10/4 12/11/4 10/12/4
g face3-texture:1
v -0.500000 -0.500000 -0.500000
v -0.500000 -0.500000 0.500000
v -0.500000 -0.500000 0.500000
v -0.500000 0.000000 0.000000
vt 0.000000 1.000000
vt 1.000000 1.000000
vt 1.000000 0.000000
vt 0.500000 0.500000
vn -1.0000 0.0000 0.0000
usemtl None.001
s 1
f 13/13/5 14/14/5 15/15/5 16/16/5
