# Blender v2.81 (sub 16) OBJ File: ''
# www.blender.org
mtllib corner_balustrade_plain.mtl
v -0.500000 -0.437500 0.437500
v -0.562491 -0.500000 0.375009
v -0.500000 -0.500000 0.437500
v -0.562491 -0.437500 0.375009
v 0.375009 -0.437500 -0.562491
v 0.437500 -0.500000 -0.500000
v 0.375009 -0.500000 -0.562491
v 0.437500 -0.437500 -0.500000
v -0.096645 0.437500 -0.059591
v -0.065400 -0.437500 -0.028346
v -0.065400 0.437500 -0.028346
v -0.096645 -0.437500 -0.059591
v -0.006806 0.437500 -0.086939
v -0.006806 -0.437500 -0.086939
v -0.038051 0.437500 -0.118185
v -0.038051 -0.437500 -0.118185
v 0.205085 0.437500 -0.361321
v 0.236330 -0.437500 -0.330076
v 0.236331 0.437500 -0.330076
v 0.205085 -0.437500 -0.361321
v 0.294924 0.437500 -0.388670
v 0.294924 -0.437500 -0.388670
v 0.263679 0.437500 -0.419915
v 0.263679 -0.437500 -0.419915
v -0.419915 0.437500 0.263679
v -0.388670 -0.437500 0.294924
v -0.388670 0.437500 0.294924
v -0.419915 -0.437500 0.263679
v -0.330076 0.437500 0.236331
v -0.330076 -0.437500 0.236331
v -0.361321 0.437500 0.205085
v -0.361321 -0.437500 0.205085
v -0.500135 0.500000 0.437365
v -0.562626 0.437500 0.374874
v -0.500135 0.437500 0.437365
v -0.562626 0.500000 0.374874
v 0.374874 0.500000 -0.562626
v 0.437365 0.437500 -0.500135
v 0.374874 0.437500 -0.562626
v 0.437365 0.500000 -0.500135
vt 0.000000 0.000000
vt 0.062500 0.125000
vt 0.062500 0.000000
vt 0.000000 0.125000
vt 1.000000 0.125000
vt 0.937500 0.000000
vt 0.937500 0.125000
vt 1.000000 0.000000
vt 1.000000 0.062500
vt 0.000000 0.000000
vt 0.000000 0.062500
vt 1.000000 0.000000
vt 0.000000 0.125000
vt 1.000000 0.000000
vt 0.000000 0.000000
vt 1.000000 0.125000
vt 1.000000 0.125000
vt 0.000000 0.000000
vt 0.000000 0.125000
vt 1.000000 0.000000
vt 1.000000 1.000000
vt 0.000000 0.937500
vt 0.000000 1.000000
vt 1.000000 0.937500
vt 0.937500 0.125000
vt 1.000000 1.000000
vt 1.000000 0.125000
vt 0.937500 1.000000
vt 0.062500 0.125000
vt 0.000000 1.000000
vt 0.062500 1.000000
vt 0.000000 0.125000
vt 0.062500 0.062500
vt 0.000000 0.000000
vt 0.000000 0.062500
vt 0.062500 0.000000
vt 0.187500 0.125000
vt 0.125000 1.000000
vt 0.187500 1.000000
vt 0.125000 0.125000
vt 0.937500 0.125000
vt 1.000000 1.000000
vt 1.000000 0.125000
vt 0.937500 1.000000
vt 0.062500 0.125000
vt 0.000000 1.000000
vt 0.062500 1.000000
vt 0.000000 0.125000
vt 0.062500 0.062500
vt 0.000000 0.000000
vt 0.000000 0.062500
vt 0.062500 0.000000
vt 0.187500 0.125000
vt 0.125000 1.000000
vt 0.187500 1.000000
vt 0.125000 0.125000
vt 0.937500 0.125000
vt 1.000000 1.000000
vt 1.000000 0.125000
vt 0.937500 1.000000
vt 0.062500 0.125000
vt 0.000000 1.000000
vt 0.062500 1.000000
vt 0.000000 0.125000
vt 0.062500 0.062500
vt 0.000000 0.000000
vt 0.000000 0.062500
vt 0.062500 0.000000
vt 0.187500 0.125000
vt 0.125000 1.000000
vt 0.187500 1.000000
vt 0.125000 0.125000
vt 0.000000 0.000000
vt 0.062500 0.125000
vt 0.062500 0.000000
vt 0.000000 0.125000
vt 1.000000 0.125000
vt 0.937500 0.000000
vt 0.937500 0.125000
vt 1.000000 0.000000
vt 1.000000 0.062500
vt 0.000000 0.000000
vt 0.000000 0.062500
vt 1.000000 0.000000
vt 0.000000 0.125000
vt 1.000000 0.000000
vt 0.000000 0.000000
vt 1.000000 0.125000
vt 1.000000 0.125000
vt 0.000000 0.000000
vt 0.000000 0.125000
vt 1.000000 0.000000
vt 1.000000 1.000000
vt 0.000000 0.937500
vt 0.000000 1.000000
vt 1.000000 0.937500
vn -0.7071 0.0000 0.7071
vn 0.7071 0.0000 -0.7071
vn -0.7071 0.0000 -0.7071
vn 0.0000 1.0000 0.0000
vn 0.0000 -1.0000 -0.0000
vn 0.7071 0.0000 0.7071
usemtl None.007
s 1
f 1/1/1 2/2/1 3/3/1
f 2/2/1 1/1/1 4/4/1
f 5/5/2 6/6/2 7/7/2
f 6/6/2 5/5/2 8/8/2
f 2/9/3 5/10/3 7/11/3
f 5/10/3 2/9/3 4/12/3
f 5/13/4 1/14/4 8/15/4
f 1/14/4 5/13/4 4/16/4
f 3/17/5 7/18/5 6/19/5
f 7/18/5 3/17/5 2/20/5
f 1/21/6 6/22/6 8/23/6
f 6/22/6 1/21/6 3/24/6
f 9/25/1 10/26/1 11/27/1
f 10/26/1 9/25/1 12/28/1
f 13/29/6 10/30/6 14/31/6
f 10/30/6 13/29/6 11/32/6
f 13/33/4 9/34/4 11/35/4
f 9/34/4 13/33/4 15/36/4
f 9/37/3 16/38/3 12/39/3
f 16/38/3 9/37/3 15/40/3
f 16/38/2 13/29/2 14/31/2
f 13/29/2 16/38/2 15/40/2
f 17/41/1 18/42/1 19/43/1
f 18/42/1 17/41/1 20/44/1
f 21/45/6 18/46/6 22/47/6
f 18/46/6 21/45/6 19/48/6
f 21/49/4 17/50/4 19/51/4
f 17/50/4 21/49/4 23/52/4
f 17/53/3 24/54/3 20/55/3
f 24/54/3 17/53/3 23/56/3
f 24/54/2 21/45/2 22/47/2
f 21/45/2 24/54/2 23/56/2
f 25/57/1 26/58/1 27/59/1
f 26/58/1 25/57/1 28/60/1
f 29/61/6 26/62/6 30/63/6
f 26/62/6 29/61/6 27/64/6
f 29/65/4 25/66/4 27/67/4
f 25/66/4 29/65/4 31/68/4
f 25/69/3 32/70/3 28/71/3
f 32/70/3 25/69/3 31/72/3
f 32/70/2 29/61/2 30/63/2
f 29/61/2 32/70/2 31/72/2
f 33/73/1 34/74/1 35/75/1
f 34/74/1 33/73/1 36/76/1
f 37/77/2 38/78/2 39/79/2
f 38/78/2 37/77/2 40/80/2
f 34/81/3 37/82/3 39/83/3
f 37/82/3 34/81/3 36/84/3
f 37/85/4 33/86/4 40/87/4
f 33/86/4 37/85/4 36/88/4
f 35/89/5 39/90/5 38/91/5
f 39/90/5 35/89/5 34/92/5
f 33/93/6 38/94/6 40/95/6
f 38/94/6 33/93/6 35/96/6
