# bounds [-0.5, -0.5, -0.5, 0.5, 0.5, 0.5]
# boxes []
mtllib arch_d1.mtl
o arch_d1
v -0.5 -0.25 0.433012701892
v 0.5 -0.370590477449 0.482962913145
v -0.5 -0.370590477449 0.482962913145
v 0.5 -0.25 0.433012701892
v -0.5 0.5 0.5
v -0.5 -0.5 0.5
v -0.5 -0.146446609407 0.353553390593
v -0.5 -0.0669872981078 0.25
v -0.5 0.5 -0.5
v -0.5 -0.0170370868555 0.129409522551
v -0.5 0.0 0.0
v -0.5 -0.0170370868555 -0.129409522551
v -0.5 -0.0669872981078 -0.25
v -0.5 -0.146446609407 -0.353553390593
v -0.5 -0.25 -0.433012701892
v -0.5 -0.370590477449 -0.482962913145
v -0.5 -0.5 -0.5
v 0.5 0.5 0.5
v 0.5 -0.5 0.5
v 0.5 -0.0170370868555 -0.129409522551
v 0.5 0.0 0.0
v 0.5 -0.0170370868555 0.129409522551
v 0.5 -0.0669872981078 0.25
v 0.5 -0.146446609407 -0.353553390593
v 0.5 -0.25 -0.433012701892
v 0.5 -0.146446609407 0.353553390593
v 0.5 0.5 -0.5
v 0.5 -0.0669872981078 -0.25
v 0.5 -0.370590477449 -0.482962913145
v 0.5 -0.5 -0.5
vt 1.0 0.83203125
vt 0.0 0.91796875
vt 1.0 0.91796875
vt 0.0 0.83203125
vt 1.0 0.0
vt 0.984375 0.87109375
vt 1.0 1.0
vt 0.93359375 0.75
vt 0.85546875 0.64453125
vt 0.75 0.56640625
vt 0.0 0.0
vt 0.62890625 0.515625
vt 0.5 0.5
vt 0.37109375 0.515625
vt 0.25 0.56640625
vt 0.14453125 0.64453125
vt 0.06640625 0.75
vt 0.015625 0.87109375
vt 0.0 1.0
vt 1.0 0.5859375
vt 0.0 0.5
vt 0.0 0.5859375
vt 1.0 0.5
vt 1.0 0.66796875
vt 0.0 0.66796875
vt 1.0 0.75
vt 0.0 0.75
vn 0.0 -0.5 -0.866025403784
vn 0.0 -0.258819045103 -0.965925826289
vn -1.0 0.0 0.0
vn 0.0 0.0 1.0
vn 0.0 -0.965925826289 0.258819045103
vn 0.0 -1.0 -4.18822165095e-16
vn 0.0 -0.965925826289 -0.258819045103
vn 0.0 -0.866025403784 -0.5
vn 0.0 -0.707106781187 0.707106781187
vn 0.0 -0.5 0.866025403784
vn 1.0 0.0 0.0
vn 0.0 -0.258819045103 0.965925826289
vn 0.0 -0.13052619222 0.991444861374
vn 0.0 -0.707106781187 -0.707106781187
vn 0.0 0.0 -1.0
vn 0.0 -0.13052619222 -0.991444861374
vn 0.0 -0.866025403784 0.5
vn 0.0 1.0 0.0
usemtl None
s off
g face0-texture:0
f 1/1/1 2/2/2 3/3/2
f 2/2/2 1/1/1 4/4/1
g face1-texture:1
f 5/5/3 3/6/3 6/7/3
f 3/6/3 5/5/3 1/8/3
f 1/8/3 5/5/3 7/9/3
f 7/9/3 5/5/3 8/10/3
f 8/10/3 5/5/3 9/11/3
f 8/10/3 9/11/3 10/12/3
f 10/12/3 9/11/3 11/13/3
f 11/13/3 9/11/3 12/14/3
f 12/14/3 9/11/3 13/15/3
f 13/15/3 9/11/3 14/16/3
f 14/16/3 9/11/3 15/17/3
f 15/17/3 9/11/3 16/18/3
f 16/18/3 9/11/3 17/19/3
g face2-texture:1
f 18/5/4 6/19/4 19/7/4
f 6/19/4 18/5/4 5/11/4
g face3-texture:0
f 20/20/5 11/21/6 12/22/5
f 11/21/6 20/20/5 21/23/6
g face4-texture:0
f 22/22/7 8/24/8 10/20/7
f 8/24/8 22/22/7 23/25/8
g face5-texture:0
f 24/26/9 15/4/10 25/1/10
f 15/4/10 24/26/9 14/27/9
g face6-texture:1
f 2/18/11 18/11/11 19/19/11
f 18/11/11 2/18/11 4/17/11
f 18/11/11 4/17/11 26/16/11
f 18/11/11 26/16/11 23/15/11
f 18/11/11 23/15/11 27/5/11
f 27/5/11 23/15/11 22/14/11
f 27/5/11 22/14/11 21/13/11
f 27/5/11 21/13/11 20/12/11
f 27/5/11 20/12/11 28/10/11
f 27/5/11 28/10/11 24/9/11
f 27/5/11 24/9/11 25/8/11
f 27/5/11 25/8/11 29/6/11
f 27/5/11 29/6/11 30/7/11
g face7-texture:0
f 29/3/12 17/19/13 30/7/13
f 17/19/13 29/3/12 16/2/12
g face8-texture:0
f 7/26/14 4/4/1 1/1/1
f 4/4/1 7/26/14 26/27/14
g face9-texture:0
f 21/21/6 10/20/7 11/23/6
f 10/20/7 21/21/6 22/22/7
g face10-texture:1
f 9/5/15 30/19/15 17/7/15
f 30/19/15 9/5/15 27/11/15
g face11-texture:0
f 25/1/10 16/2/12 29/3/12
f 16/2/12 25/1/10 15/4/10
g face12-texture:0
f 3/3/2 19/19/16 6/7/16
f 19/19/16 3/3/2 2/2/2
g face13-texture:0
f 24/26/9 13/25/17 14/27/9
f 13/25/17 24/26/9 28/24/17
g face14-texture:0
f 28/24/17 12/22/5 13/25/17
f 12/22/5 28/24/17 20/20/5
g face15-texture:0
f 23/25/8 7/26/14 8/24/8
f 7/26/14 23/25/8 26/27/14
g face16-texture:1
f 18/7/18 9/11/18 5/19/18
f 9/11/18 18/7/18 27/5/18
